<svg version="1.2" xmlns="http://www.w3.org/2000/svg" viewBox="0 0 109 109" width="109" height="109">
	<title>7</title>
	<style>
		.s0 { fill: #f6a120 } 
		.s1 { fill: #ffb14a } 
		.s2 { fill: #db123d } 
	</style>
	<g id="7">
		<path id="Layer" class="s0" d="m53.9 106.2c-28.5 0-51.6-23.1-51.6-51.7 0-28.5 23.1-51.6 51.6-51.6 28.6 0 51.7 23.1 51.7 51.6 0 28.6-23.1 51.7-51.7 51.7z"/>
		<path id="Layer" class="s1" d="m4.3 40.2c-3 10.7-2.6 22 1.3 32.4 3.8 10.4 10.9 19.2 20.2 25.3 9.3 6 20.3 8.9 31.4 8.2 11-0.7 21.6-4.9 30-12.1-5.5 1.3-26.3 5.6-47.8-5.8-28.1-14.8-34.3-44-35.1-48z"/>
		<path id="Layer" class="s2" d="m46.4 33.9l4.3 0.7-3.2 3.1 0.7 4.4-3.9-2.2-3.9 2 0.8-4.3-3.1-3.1 4.4-0.6 2-4 1.9 4z"/>
		<path id="Layer" class="s2" d="m68 33.9l4.4 0.7-3.2 3.1 0.7 4.4-3.9-2.2-4 2 0.8-4.3-3.1-3.1 4.4-0.6 2-4 1.9 4z"/>
		<path id="Layer" class="s2" d="m37.4 51.5l4.4 0.7-3.3 3.1 0.7 4.3-3.9-2.1-3.9 2 0.8-4.3-3.1-3.1 4.4-0.6 2-4 1.9 4z"/>
		<path id="Layer" class="s2" d="m57 51.5l4.4 0.7-3.2 3.1 0.7 4.3-3.9-2.1-4 2 0.9-4.3-3.2-3.1 4.4-0.6 2-4 1.9 4z"/>
		<path id="Layer" class="s2" d="m76.7 51.5l4.4 0.7-3.3 3.1 0.7 4.3-3.9-2.1-3.9 2 0.8-4.3-3.1-3.1 4.4-0.6 2-4 1.9 4z"/>
		<path id="Layer" class="s2" d="m46.4 67.6l4.3 0.7-3.2 3.1 0.7 4.3-3.9-2.1-3.9 2 0.8-4.3-3.1-3.2 4.4-0.5 2-4 1.9 4z"/>
		<path id="Layer" class="s2" d="m68 68.8l4.4 0.6-3.2 3.1 0.7 4.4-3.9-2.1-4 2 0.8-4.4-3.1-3.1 4.4-0.6 2-3.9 1.9 4z"/>
		<path id="Layer" class="s1" d="m61.5 17.9c14.6 1.1 22.3 11.3 28.2 23.6 2.5 5.2 10.3 0.7 7.8-4.5-7.4-15.5-18.1-26.7-36-28.1-5.8-0.4-5.8 8.5 0 9z"/>
		<path id="Layer" class="s1" d="m93.3 54.4l1 1.9c0.4 0.8 1.1 1.4 1.9 1.8 0.8 0.4 1.7 0.5 2.5 0.4 0.9-0.1 1.7-0.5 2.4-1 0.7-0.6 1.1-1.4 1.4-2.2q0.1-0.5 0.1-0.9 0-0.5 0-0.9-0.1-0.5-0.2-0.9-0.2-0.4-0.4-0.8l-0.9-1.9c-0.5-0.8-1.2-1.4-1.9-1.8-0.8-0.4-1.7-0.5-2.6-0.4-0.9 0.1-1.7 0.5-2.4 1.1-0.6 0.5-1.1 1.3-1.4 2.2q-0.1 0.4-0.1 0.8 0 0.5 0.1 0.9 0 0.5 0.1 0.9 0.2 0.4 0.4 0.8z"/>
	</g>
</svg>